<?xml version="1.0" encoding="iso-8859-1"?>
<!-- Uploaded to: SVG Repo, www.svgrepo.com, Generator: SVG Repo Mixer Tools -->
<svg fill="#000000" height="800px" width="800px" version="1.1" id="Layer_1" xmlns="http://www.w3.org/2000/svg" xmlns:xlink="http://www.w3.org/1999/xlink" 
	 viewBox="0 0 512 512" xml:space="preserve">
<g>
	<g>
		<path d="M441.279,170.211L351.803,7.486C349.265,2.868,344.414,0,339.144,0H172.856c-5.269,0-10.12,2.868-12.659,7.486
			L70.721,170.211c-1.697,3.089-2.209,6.692-1.436,10.13l72.036,320.381c1.482,6.593,7.337,11.278,14.094,11.278h201.168
			c6.758,0,12.612-4.684,14.094-11.278l72.036-320.381C443.488,176.903,442.976,173.3,441.279,170.211z M345.025,483.107h-178.05
			l-10.11-44.962H280.59c7.979,0,14.446-6.469,14.446-14.446c0-7.977-6.468-14.446-14.446-14.446h-130.22L98.675,179.34
			l82.723-150.447H330.6l24.722,44.962H231.409c-7.979,0-14.446,6.469-14.446,14.446c0,7.977,6.468,14.446,14.446,14.446h139.8
			l42.114,76.592L345.025,483.107z"/>
	</g>
</g>
<g>
	<g>
		<path d="M338.689,191.319h-38.641v-39.999c0-7.977-6.468-14.446-14.446-14.446h-59.202c-7.979,0-14.446,6.469-14.446,14.446
			v39.999h-38.641c-7.979,0-14.446,6.469-14.446,14.446v59.202c0,7.977,6.468,14.446,14.446,14.446h38.641v81.269
			c0,7.977,6.468,14.446,14.446,14.446h59.202c7.979,0,14.446-6.469,14.446-14.446v-81.269h38.641
			c7.979,0,14.446-6.469,14.446-14.446v-59.202C353.135,197.787,346.668,191.319,338.689,191.319z M324.242,250.52h-38.641
			c-7.979,0-14.446,6.469-14.446,14.446v81.269h-30.309v-81.269c0-7.977-6.468-14.446-14.446-14.446h-38.641v-30.309h38.641
			c7.979,0,14.446-6.469,14.446-14.446v-39.999h30.309v39.999c0,7.977,6.468,14.446,14.446,14.446h38.641V250.52z"/>
	</g>
</g>
<g>
	<g>
		<path d="M338.085,420.876c-0.173-0.923-0.462-1.835-0.823-2.7c-0.361-0.881-0.795-1.719-1.315-2.499
			c-0.534-0.795-1.141-1.531-1.806-2.196c-0.665-0.664-1.401-1.271-2.196-1.791c-0.78-0.519-1.618-0.968-2.485-1.329
			c-0.881-0.361-1.791-0.634-2.701-0.823c-1.878-0.376-3.799-0.376-5.649,0c-0.925,0.189-1.835,0.462-2.701,0.823
			c-0.881,0.361-1.719,0.81-2.499,1.329c-0.795,0.52-1.531,1.127-2.196,1.791c-0.665,0.665-1.271,1.401-1.791,2.196
			c-0.52,0.78-0.968,1.618-1.329,2.499c-0.361,0.867-0.636,1.777-0.823,2.701s-0.289,1.878-0.289,2.817
			c0,0.938,0.101,1.892,0.289,2.831c0.188,0.91,0.462,1.82,0.823,2.701c0.361,0.867,0.809,1.705,1.329,2.485
			c0.52,0.795,1.127,1.531,1.791,2.196c0.665,0.68,1.401,1.271,2.196,1.806c0.78,0.52,1.618,0.968,2.499,1.329
			c0.867,0.361,1.777,0.636,2.701,0.823c0.925,0.188,1.878,0.275,2.817,0.275c3.799,0,7.527-1.533,10.214-4.234
			c0.665-0.665,1.271-1.401,1.791-2.196c0.52-0.78,0.968-1.618,1.329-2.485c0.361-0.881,0.65-1.791,0.823-2.701
			c0.188-0.939,0.289-1.894,0.289-2.831C338.374,422.754,338.273,421.799,338.085,420.876z"/>
	</g>
</g>
<g>
	<g>
		<path d="M198.287,78.092c-0.665-0.679-1.401-1.271-2.196-1.806c-0.78-0.519-1.618-0.968-2.499-1.329
			c-0.867-0.361-1.777-0.634-2.701-0.823c-1.864-0.376-3.785-0.376-5.634,0c-0.925,0.189-1.835,0.462-2.716,0.823
			c-0.867,0.361-1.705,0.81-2.485,1.329c-0.795,0.534-1.531,1.127-2.196,1.806c-0.665,0.665-1.271,1.401-1.806,2.181
			c-0.52,0.796-0.953,1.634-1.315,2.499c-0.361,0.865-0.65,1.775-0.823,2.701c-0.188,0.938-0.289,1.893-0.289,2.831
			c0,0.938,0.101,1.893,0.289,2.817c0.173,0.925,0.462,1.835,0.823,2.701c0.361,0.88,0.795,1.718,1.315,2.498
			c0.535,0.795,1.141,1.533,1.806,2.197c0.665,0.665,1.401,1.271,2.196,1.79c0.78,0.52,1.618,0.968,2.485,1.329
			c0.881,0.361,1.791,0.636,2.716,0.823s1.878,0.289,2.817,0.289c0.939,0,1.892-0.101,2.817-0.289
			c0.925-0.188,1.835-0.462,2.701-0.823c0.881-0.361,1.719-0.809,2.499-1.329c0.795-0.519,1.531-1.125,2.196-1.79
			s1.271-1.403,1.791-2.197c0.52-0.78,0.968-1.618,1.329-2.498c0.361-0.868,0.636-1.777,0.823-2.701
			c0.188-0.926,0.289-1.879,0.289-2.817C202.519,84.492,200.974,80.779,198.287,78.092z"/>
	</g>
</g>
</svg>